<svg width="0" height="0" class="hidden">
  <symbol fill="none" xmlns="http://www.w3.org/2000/svg" viewBox="0 0 36 36" id="wifi_icon">
    <g clip-path="url(#clip0_1_305)">
      <path d="M31.4706 26.3206C34 26.3206 36 28.35 36 30.7853C36 33.2206 33.9412 35.25 31.4706 35.25C29 35.25 26.9412 33.2206 26.9412 30.7853C26.9412 28.35 29 26.3206 31.4706 26.3206ZM33.1176 0.75C33.7059 0.75 34.1765 1.21387 34.1765 1.7937C34.1765 2.37353 33.7059 2.83739 33.1176 2.83739C16 2.83739 2.05882 16.5214 2.11765 33.4525C2.11765 34.0324 1.64706 34.4962 1.05882 34.4962C0.470588 34.4962 0 34.0324 0 33.4525C0 15.4197 14.8235 0.807983 33.1176 0.75ZM33.0588 10.2013C33.6471 10.2013 34.1176 10.6651 34.1176 11.245C34.1176 11.7668 33.7059 12.2307 33.1176 12.2307C21.2353 12.2307 11.5882 21.7399 11.6471 33.3945C11.6471 33.9744 11.1765 34.4382 10.5882 34.4382C10 34.4382 9.52941 33.9744 9.52941 33.3945C9.52941 20.6382 20.0588 10.2013 33.0588 10.2013ZM33.0588 19.5366C33.6471 19.5366 34.1176 20.0004 34.1176 20.5803C34.1176 21.1601 33.7059 21.566 33.1176 21.566C26.5294 21.566 21.1176 26.8424 21.1176 33.3945C21.1176 33.9744 20.6471 34.4382 20.0588 34.4382C19.4706 34.4382 19 33.9744 19 33.3945C19 25.7408 25.2941 19.5366 33.0588 19.5366ZM31.4706 28.408C30.1176 28.408 29 29.5097 29 30.8433C29 32.1769 30.1176 33.2786 31.4706 33.2786C32.8235 33.2786 33.9412 32.1769 33.9412 30.8433C33.9412 29.5097 32.8235 28.408 31.4706 28.408Z" fill="#52503B"></path>
    </g>
    <defs>
      <clipPath id="clip0_1_305">
        <rect width="36" height="36" fill="white"></rect>
      </clipPath>
    </defs>
  </symbol>
  <symbol fill="none" xmlns="http://www.w3.org/2000/svg" viewBox="0 0 18 18" id="star_icon">
    <g clip-path="url(#clip0_1_230)">
      <path d="M17.9322 6.78C17.8122 6.42 17.5122 6.15 17.1522 6.09L12.1422 5.31L9.89215 0.57C9.71215 0.21 9.38215 0 8.99215 0C8.60215 0 8.27215 0.21 8.12215 0.57L5.87215 5.34L0.832151 6.15C0.472151 6.21 0.172151 6.48 0.0521506 6.84C-0.0678494 7.2 0.0221506 7.62 0.292151 7.89L3.92215 11.61L3.08215 16.8C3.02215 17.19 3.17215 17.58 3.50215 17.82C3.68215 17.94 3.86215 18 4.04215 18C4.19215 18 4.37215 17.97 4.49215 17.88L8.99215 15.42L13.4622 17.85C13.7922 18.03 14.1822 18 14.4822 17.79C14.8122 17.55 14.9622 17.16 14.9022 16.77L14.0622 11.55L17.6922 7.83C17.9622 7.56 18.0522 7.14 17.9322 6.78ZM17.2422 7.41L13.6422 11.13C13.5222 11.25 13.4622 11.46 13.4922 11.64L14.3322 16.86C14.3622 17.07 14.2722 17.22 14.1522 17.28C14.0922 17.31 13.9422 17.4 13.7622 17.31L9.26215 14.88C9.08215 14.79 8.90215 14.79 8.72215 14.88L4.22215 17.34C4.04215 17.43 3.89215 17.37 3.83215 17.31C3.74215 17.25 3.62215 17.07 3.65215 16.89L4.52215 11.7C4.55215 11.52 4.49215 11.31 4.37215 11.19L0.742151 7.47C0.592151 7.32 0.592151 7.14 0.622151 7.02C0.682151 6.87 0.772151 6.78 0.922151 6.75L5.96215 5.94C6.14215 5.91 6.32215 5.79 6.38215 5.61L8.63215 0.84C8.72215 0.69 8.84215 0.6 8.99215 0.6C9.14215 0.6 9.26215 0.69 9.32215 0.84L11.5722 5.61C11.6622 5.79 11.8122 5.91 11.9922 5.94L17.0022 6.72C17.1522 6.75 17.2722 6.84 17.3022 6.99C17.3922 7.08 17.3922 7.29 17.2422 7.41Z" fill="#52503B"></path>
    </g>
    <defs>
      <clipPath id="clip0_1_230">
        <rect width="18" height="18" fill="white"></rect>
      </clipPath>
    </defs>
  </symbol>
  <symbol fill="none" xmlns="http://www.w3.org/2000/svg" viewBox="0 0 18 18" id="star_icon--filled">
    <g clip-path="url(#clip0_1_200)">
      <path d="M17.5927 6.48942L11.9726 5.62002L9.42655 0.279449C9.24025 -0.0931496 8.74346 -0.0931496 8.55716 0.279449L6.01107 5.65107L0.422094 6.48942C0.0184458 6.55152 -0.136803 7.07937 0.173695 7.35882L4.24123 11.5505L3.27868 17.419C3.21658 17.8226 3.62023 18.1642 3.99283 17.9158L9.05395 15.1523L14.084 17.9158C14.4256 18.1021 14.8603 17.7916 14.7671 17.419L13.8046 11.5505L17.8721 7.35882C18.1205 7.07937 17.9963 6.55152 17.5927 6.48942Z" fill="#52503B"></path>
    </g>
    <defs>
      <clipPath id="clip0_1_200">
        <rect width="18" height="18" fill="white"></rect>
      </clipPath>
    </defs>
  </symbol>
  <symbol fill="none" xmlns="http://www.w3.org/2000/svg" viewBox="0 0 36 36" id="pizza_icon">
    <path d="M35.8627 20.6722C34.5743 16.577 31.6461 12.1307 27.7224 8.21103C23.8572 4.29132 19.4064 1.42467 15.3069 0.137603C13.8429 -0.330422 12.2031 0.430118 11.676 1.8927L0.197584 32.0218C-0.21236 33.1334 0.0218934 34.3034 0.841781 35.1225C1.42742 35.7075 2.13018 36 2.8915 36C3.24288 36 3.59426 35.9415 3.94564 35.8245L21.5732 29.0966C21.6318 29.0966 21.6318 29.0966 21.6904 29.0381L23.7986 28.2191L34.0472 24.2994C35.5699 23.7729 36.3312 22.1348 35.8627 20.6722ZM3.24288 33.8354C2.77437 34.0109 2.42299 33.7184 2.30587 33.6599C2.18874 33.5429 1.89592 33.2504 2.13018 32.7238L4.58984 26.2885C5.17548 27.5756 6.40531 28.4531 7.92796 28.4531C9.91911 28.4531 11.5589 26.815 11.5589 24.8259C11.5589 22.8368 9.91911 21.1987 7.92796 21.1987C7.40089 21.1987 6.87382 21.3157 6.40531 21.5497L10.9733 9.4981C11.7346 9.96612 12.4959 10.4341 13.2572 11.0192C12.3202 11.6627 11.7346 12.7743 11.7346 13.9443C11.7346 15.9334 13.3744 17.5715 15.3655 17.5715C16.8882 17.5715 18.1766 16.6355 18.7036 15.3484C21.5147 17.981 24.2672 21.1402 26.6097 25.0014L25.2042 25.5279C25.2042 23.5388 23.5644 21.9008 21.5732 21.9008C19.5821 21.9008 17.9423 23.5388 17.9423 25.5279C17.9423 26.464 18.2937 27.283 18.8793 27.9266L3.24288 33.8354ZM6.28818 24.8259C6.28818 23.9484 6.99094 23.2463 7.86939 23.2463C8.74784 23.2463 9.45061 23.9484 9.45061 24.8259C9.45061 25.7035 8.74784 26.4055 7.86939 26.4055C6.99094 26.4055 6.28818 25.7035 6.28818 24.8259ZM16.9467 13.8273C16.9467 13.8858 16.9467 13.8858 16.9467 13.9443C16.9467 14.8219 16.244 15.5239 15.3655 15.5239C14.4871 15.5239 13.7843 14.8219 13.7843 13.9443C13.7843 13.1253 14.3699 12.4818 15.1898 12.3647C15.7755 12.8328 16.3611 13.3008 16.9467 13.8273ZM21.1633 27.049C20.4605 26.8735 19.9335 26.23 19.9335 25.5279C19.9335 24.6504 20.6362 23.9484 21.5147 23.9484C22.3931 23.9484 23.0959 24.6504 23.0959 25.5279C23.0959 25.879 22.9788 26.1715 22.8031 26.4055L21.1633 27.049ZM33.403 22.3688L28.5423 24.2409C25.6727 19.3851 22.1003 15.5239 18.6451 12.5403C18.5865 12.5403 18.5865 12.4818 18.5279 12.4818C17.708 11.7797 16.8882 11.1362 16.0683 10.5512L16.0097 10.4927C14.4871 9.38109 13.023 8.38654 11.676 7.5675L13.55 2.59473C13.6672 2.24371 14.0186 2.0097 14.3699 2.0097C14.4871 2.0097 14.5456 2.0097 14.6628 2.06821C18.4108 3.23827 22.6274 6.04642 26.2583 9.67361C29.8892 13.3008 32.7003 17.5715 33.8716 21.3157C34.0472 21.7252 33.813 22.1933 33.403 22.3688Z" fill="#52503B"></path>
  </symbol>
  <symbol fill="none" xmlns="http://www.w3.org/2000/svg" viewBox="0 0 24 36" id="glass_icon">
    <path d="M20.2376 23.9806C22.3328 21.7634 23.4103 18.7877 23.2307 15.7536L22.2729 3.20908C22.1532 1.40032 20.5968 0 18.7411 0H5.2724C3.41671 0 1.86033 1.40032 1.74061 3.20908L0.782834 15.7536C0.54339 18.7877 1.62089 21.7634 3.77588 23.9806C5.63157 25.9643 8.20559 27.1896 10.9592 27.423V33.8995H6.29004C5.69143 33.8995 5.21254 34.3663 5.21254 34.9498C5.21254 35.5332 5.69143 36 6.29004 36H17.7235C18.3221 36 18.801 35.5332 18.801 34.9498C18.801 34.3663 18.3221 33.8995 17.7235 33.8995H13.0543V27.423C15.8079 27.1896 18.3819 25.9643 20.2376 23.9806ZM5.2724 2.04214H18.7411C19.4594 2.04214 20.1179 2.62561 20.1778 3.32577L20.5968 8.57699H3.47657L3.8956 3.32577C3.8956 2.62561 4.55407 2.04214 5.2724 2.04214ZM2.93783 15.8703L3.29699 10.6775H20.7165L21.0757 15.8703C21.2553 18.3793 20.4172 20.7131 18.6812 22.5802C16.9453 24.389 14.5508 25.4392 11.9768 25.4392C9.4028 25.4392 7.06823 24.4473 5.2724 22.5802C3.5963 20.7715 2.75824 18.3793 2.93783 15.8703Z" fill="#52503B"></path>
  </symbol>
  <symbol fill="none" xmlns="http://www.w3.org/2000/svg" viewBox="0 0 36 36" id="storege_icon">
    <path d="M31.4416 7.65453H25.1883V5.60302C25.1883 3.31705 23.3182 1.5 21.0974 1.5H14.9026C12.6234 1.5 10.8117 3.37567 10.8117 5.60302V7.65453H4.55844C2.04545 7.65453 0 9.70604 0 12.2265V17.9707C0 18.5568 0.467533 19.0258 1.05195 19.0258H1.57792V30.1625C1.57792 32.5657 3.50649 34.5 5.9026 34.5H30.0974C32.4935 34.5 34.4221 32.5657 34.4221 30.1625V19.0258H34.9481C35.5325 19.0258 36 18.5568 36 17.9707V12.2265C36 9.70604 33.9545 7.65453 31.4416 7.65453ZM12.8571 5.60302C12.8571 4.48934 13.7922 3.55151 14.9026 3.55151H21.039C22.1494 3.55151 23.0844 4.48934 23.0844 5.60302V7.65453H12.8571V5.60302ZM2.1039 12.2265C2.1039 10.8783 3.21429 9.70604 4.61688 9.70604H31.5C32.8442 9.70604 34.013 10.8197 34.013 12.2265V16.9742H2.1039V12.2265ZM32.3766 30.1039C32.3766 31.3934 31.3247 32.3899 30.0974 32.3899H5.9026C4.61688 32.3899 3.62338 31.3348 3.62338 30.1039V18.9671H10.8117V22.6012C10.8117 23.1874 11.2792 23.6563 11.8636 23.6563C12.4481 23.6563 12.9156 23.1874 12.9156 22.6012V18.9671H23.2013V22.6012C23.2013 23.1874 23.6688 23.6563 24.2532 23.6563C24.8377 23.6563 25.3052 23.1874 25.3052 22.6012V18.9671H32.4935V30.1039H32.3766Z" fill="#52503B"></path>
  </symbol>
  <symbol fill="none" xmlns="http://www.w3.org/2000/svg" viewBox="0 0 36 18" id="conditioner_icon">
    <path d="M33.1948 0C34.7143 0 36 1.26 36 2.82V15.12C36 16.74 34.7143 18 33.1948 18H2.80519C1.28571 18 0.0584416 16.74 0 15.24V2.88C0 1.26 1.28571 0 2.80519 0H33.1948ZM17.0065 12.24H10.5779V15.9H17.0065V12.24ZM25.4805 12.24H19.0519V15.9H25.4805V12.24ZM8.53247 12.24H2.1039V15.18C2.1039 15.6 2.3961 15.9 2.80519 15.9H8.53247V12.24ZM33.8961 12.24H27.4675V15.9H33.1948C33.6039 15.9 33.9545 15.6 33.8961 15.18V12.24ZM33.1948 2.1H2.80519C2.3961 2.1 2.1039 2.4 2.1039 2.82V10.2H33.9545V2.88C33.9545 2.46 33.6039 2.1 33.1948 2.1ZM29.7468 4.98C30.3312 4.98 30.7987 5.46 30.7987 6.06C30.7987 6.66 30.3312 7.14 29.7468 7.14H26.0065C25.4221 7.14 24.9545 6.66 24.9545 6.06C24.9545 5.46 25.4221 4.98 26.0065 4.98H29.7468Z" fill="#52503B"></path>
  </symbol>
  <symbol fill="none" xmlns="http://www.w3.org/2000/svg" viewBox="0 0 36 28" id="natural_icon">
    <path d="M23.1429 7.35075L23.4085 7.36064C24.6325 7.45258 25.6325 8.17974 26.1234 9.3081L32.961 25.4851H34.9481C35.5325 25.4851 36 25.8881 36 26.4638C36 27.0394 35.5325 27.5 34.9481 27.5H1.05195C0.467533 27.5 0 27.097 0 26.5213C0 25.9456 0.467533 25.4851 1.05195 25.4851H2.33766L8.2987 11.0928C8.76623 9.88379 9.87662 9.13539 11.2208 9.13539C12.5649 9.19296 13.6753 9.88379 14.2013 11.0928L16.8896 17.3678L20.2208 9.3081C20.6883 8.09915 21.7987 7.35075 23.1429 7.35075ZM23.1429 9.42324L23.0854 9.42506C22.8637 9.43847 22.3566 9.53838 22.0909 10.1141L17.9416 20.0736L20.2792 25.5426H22.2078V24.161C21.039 23.6429 20.2208 22.2612 20.2208 20.5341C20.2208 18.3465 21.5649 16.677 23.2013 16.677C24.8377 16.677 26.1818 18.4041 26.1818 20.5341C26.1818 22.2612 25.4221 23.6429 24.2532 24.161V25.5426H30.7403L24.1948 10.1141C23.961 9.48081 23.3182 9.42324 23.1429 9.42324ZM11.2208 11.2079C11.0455 11.2079 10.461 11.2655 10.1688 11.8987L4.5 25.5426H18.0584L12.2727 11.8987C12.039 11.2655 11.3961 11.2079 11.2208 11.2079ZM23.2013 18.6343C22.8506 18.6343 22.2662 19.3252 22.2662 20.4765C22.2662 21.6279 22.7922 22.3188 23.2013 22.3188C23.6104 22.3188 24.1364 21.6279 24.1364 20.4765C24.1364 19.3252 23.5519 18.6343 23.2013 18.6343ZM30.7987 0.5C32.8442 0.5 34.4805 2.11194 34.4805 4.12687C34.4805 6.14179 32.7857 7.75373 30.7987 7.75373C28.8117 7.75373 27.1169 6.14179 27.1169 4.12687C27.1169 2.11194 28.7532 0.5 30.7987 0.5ZM30.7987 2.57249C29.9221 2.57249 29.1623 3.26333 29.1623 4.18443C29.1623 5.10554 29.8636 5.79638 30.7987 5.79638C31.7338 5.79638 32.4351 5.10554 32.4351 4.18443C32.4351 3.26333 31.6753 2.57249 30.7987 2.57249Z" fill="#52503B"></path>
  </symbol>
  <symbol fill="none" xmlns="http://www.w3.org/2000/svg" viewBox="0 0 36 36" id="coffe_maker_icon">
    <path d="M31.7102 0H10.5983C8.59324 0 7.001 1.57792 7.001 3.56494V6.37013C7.001 8.00649 8.0625 9.35065 9.59576 9.75974V12.0974C9.59576 12.6818 10.0675 13.1494 10.6573 13.1494C11.247 13.1494 11.7187 12.6818 11.7187 12.0974V9.93507H23.8079C24.6336 9.93507 25.3412 10.6364 25.3412 11.4545V24.5455C25.3412 25.3636 24.6336 26.0649 23.8079 26.0649H14.2545C15.8468 24.8377 16.8493 22.9091 16.8493 20.8052C16.8493 20.2208 16.3775 19.7532 15.7878 19.7532H4.2883C3.69859 19.7532 3.22681 20.2208 3.22681 20.8052C3.22681 22.9091 4.22933 24.8377 5.82157 26.0649H4.34728C2.34224 26.0649 0.75 27.6429 0.75 29.6299V32.4351C0.75 34.4221 2.34224 36 4.34728 36H31.6512C33.6562 36 35.2485 34.4221 35.2485 32.4351V3.56494C35.3074 1.63636 33.6562 0 31.7102 0ZM14.6084 21.7987C14.1366 23.9026 12.2495 25.4221 10.0086 25.4221C7.76764 25.4221 5.88054 23.8442 5.40877 21.7987H14.6084ZM33.2434 32.4351C33.2434 33.2532 32.5358 33.9545 31.7102 33.9545H4.34728C3.52167 33.9545 2.81401 33.2532 2.81401 32.4351V29.6299C2.81401 28.8117 3.52167 28.1104 4.34728 28.1104H23.69C25.695 28.1104 27.2873 26.5325 27.2873 24.5455V11.4545C27.2873 9.46753 25.695 7.88961 23.69 7.88961H10.5983C9.77268 7.88961 9.06502 7.18831 9.06502 6.37013V3.56494C9.06502 2.74675 9.77268 2.04545 10.5983 2.04545H31.6512C32.4768 2.04545 33.1845 2.74675 33.1845 3.56494V32.4351H33.2434Z" fill="#52503B"></path>
  </symbol>
  <symbol fill="none" xmlns="http://www.w3.org/2000/svg" viewBox="0 0 36 30" id="trees_icon">
    <path d="M29.1132 9.14579L29.3079 9.15639C29.7545 9.20558 30.1451 9.42422 30.4012 9.77405L33.7968 14.2861C34.148 14.743 34.2066 15.3712 33.9139 15.8853C33.7382 16.1708 33.5041 16.3993 33.2113 16.5706L35.7873 20.8542C36.08 21.3682 36.08 21.9394 35.7287 22.4534C35.4946 22.9674 34.9677 23.253 34.3822 23.253H30.167V28.2219C30.167 28.7931 29.6987 29.25 29.1132 29.25C28.5278 29.25 28.0595 28.7931 28.0595 28.2219V23.253H23.7857C23.2588 23.253 22.7319 22.9103 22.4392 22.4534C22.1465 21.9965 22.1465 21.3682 22.4392 20.9113L25.0152 16.5706C24.7224 16.4564 24.4883 16.1708 24.3126 15.8853C24.0199 15.3712 24.0785 14.743 24.4297 14.2861L27.8253 9.77405C28.118 9.37425 28.5864 9.14579 29.1132 9.14579ZM9.6766 0.75C10.2035 0.75 10.6718 0.978457 10.9646 1.37826L16.4677 8.57465C16.819 9.03156 16.8775 9.65982 16.5848 10.1738C16.2921 10.6879 15.7652 11.0306 15.1212 11.0306L19.2778 18.1698C19.5706 18.6268 19.5706 19.255 19.2778 19.7119C19.0437 20.1688 18.5168 20.4544 17.9313 20.4544H10.7889V28.1648C10.7889 28.736 10.3206 29.1929 9.73514 29.1929C9.1497 29.1929 8.68135 28.736 8.68135 28.1648V20.4544H1.59751C1.01207 20.4544 0.48517 20.1117 0.192449 19.5977C-0.100271 19.1408 -0.0417271 18.5125 0.250994 18.0556L4.81744 11.0306H4.29054C3.7051 11.0306 3.1782 10.6879 2.88548 10.1738C2.59276 9.65982 2.6513 9.03156 3.00257 8.57465L8.38863 1.37826C8.68135 0.978457 9.1497 0.75 9.6766 0.75ZM29.0547 11.4304L26.4202 14.9143C26.6544 15.0286 26.8886 15.257 27.0057 15.4855C27.2984 15.9424 27.2984 16.5706 27.0057 17.0276L24.5468 21.1969H33.5626L31.1037 17.0276C30.811 16.5706 30.811 15.9424 31.1037 15.4855C31.2208 15.257 31.455 15.0286 31.6892 14.9143L29.0547 11.4304ZM9.6766 3.09168L5.1687 9.08868H5.57851C6.16395 9.08868 6.74939 9.43136 6.98357 9.88828C7.21774 10.3452 7.21774 10.9734 6.92502 11.4304L2.41713 18.4554H17.0532L12.8965 11.3732C12.6038 10.9163 12.6038 10.2881 12.8965 9.83116C13.1892 9.43136 13.6576 9.08868 14.1845 9.08868L9.6766 3.09168Z" fill="#52503B"></path>
  </symbol>
  <symbol fill="none" xmlns="http://www.w3.org/2000/svg" viewBox="0 0 36 36" id="kitchen_icon">
    <g clip-path="url(#clip0_1_109)">
      <path d="M33.1364 0C34.6558 0 35.9416 1.22927 36 2.75122V33.1902C36 34.7707 34.7143 36 33.1948 36H2.80519C1.22727 36 0 34.7122 0 33.1902V2.75122C0 1.22927 1.22727 0 2.74675 0H33.1364ZM33.1364 1.99024H2.74675C2.33766 1.99024 1.98701 2.34146 1.98701 2.75122V33.1902C1.98701 33.6 2.33766 33.9512 2.74675 33.9512H33.1364C33.5455 33.9512 33.8961 33.6 33.8961 33.1902V2.75122C33.8961 2.34146 33.5455 1.99024 33.1364 1.99024ZM22.4416 29.6195C23.026 29.6195 23.4935 30.0878 23.4935 30.6732C23.4935 31.2585 23.026 31.7268 22.4416 31.7268H21.5649C20.9805 31.7268 20.513 31.2585 20.513 30.6732C20.513 30.0878 20.9805 29.6195 21.5649 29.6195H22.4416ZM27.8766 29.6195C28.461 29.6195 28.9286 30.0878 28.9286 30.6732C28.9286 31.2585 28.461 31.7268 27.8766 31.7268H27C26.4156 31.7268 25.9481 31.2585 25.9481 30.6732C25.9481 30.0878 26.4156 29.6195 27 29.6195H27.8766ZM10.5779 18.3805C13.0325 18.3805 15.0779 20.4293 15.0779 22.8878C15.0779 25.3463 13.0325 27.3951 10.5779 27.3951C8.12338 27.3951 6.07792 25.3463 6.07792 22.8878C6.07792 20.4293 8.12338 18.3805 10.5779 18.3805ZM25.3052 18.3805C27.8182 18.3805 29.8052 20.4293 29.8052 22.8878C29.8052 25.3463 27.7597 27.3951 25.3052 27.3951C22.8507 27.3951 20.8052 25.3463 20.8052 22.8878C20.8052 20.4293 22.8507 18.3805 25.3052 18.3805ZM10.5779 20.4293C9.23377 20.4293 8.12338 21.5415 8.12338 22.8878C8.12338 24.2341 9.23377 25.3463 10.5779 25.3463C11.9221 25.3463 13.0325 24.2341 13.0325 22.8878C13.0325 21.5415 11.9221 20.4293 10.5779 20.4293ZM25.3052 20.4293C23.961 20.4293 22.8507 21.5415 22.8507 22.8878C22.8507 24.2341 23.961 25.3463 25.3052 25.3463C26.6494 25.3463 27.7597 24.2341 27.7597 22.8878C27.7597 21.5415 26.6494 20.4293 25.3052 20.4293ZM10.5779 5.32683C13.0325 5.32683 15.0779 7.31707 15.0779 9.83415C15.0779 12.2927 13.0325 14.3415 10.5779 14.3415C8.12338 14.3415 6.07792 12.2927 6.07792 9.83415C6.07792 7.37561 8.12338 5.32683 10.5779 5.32683ZM25.3052 5.32683C27.8182 5.32683 29.8052 7.31707 29.8052 9.83415C29.8052 12.2927 27.7597 14.3415 25.3052 14.3415C22.8507 14.3415 20.8052 12.2927 20.8052 9.83415C20.8052 7.37561 22.8507 5.32683 25.3052 5.32683ZM10.5779 7.37561C9.23377 7.37561 8.12338 8.4878 8.12338 9.83415C8.12338 11.1805 9.23377 12.2927 10.5779 12.2927C11.9221 12.2927 13.0325 11.1805 13.0325 9.83415C13.0325 8.4878 11.9221 7.37561 10.5779 7.37561ZM25.3052 7.37561C23.961 7.37561 22.8507 8.4878 22.8507 9.83415C22.8507 11.1805 23.961 12.2927 25.3052 12.2927C26.6494 12.2927 27.7597 11.1805 27.7597 9.83415C27.7597 8.4878 26.6494 7.37561 25.3052 7.37561Z" fill="#52503B"></path>
    </g>
    <defs>
      <clipPath id="clip0_1_109">
        <rect width="36" height="36" fill="white"></rect>
      </clipPath>
    </defs>
  </symbol>
  <symbol fill="none" xmlns="http://www.w3.org/2000/svg" viewBox="0 0 64 60" id="bathroom_icon">
    <path d="M62.1299 27.1512H57.7662H12.2597V6.89217C12.2597 5.52046 13.2987 4.46531 14.6494 4.46531H22.6494V7.52526C20.4675 7.84181 18.7013 9.74109 18.7013 12.0624V16.7051C18.7013 17.7603 19.5325 18.6044 20.5714 18.6044H27.9481C28.987 18.6044 29.8182 17.7603 29.8182 16.7051V12.0624C29.8182 9.95212 28.3636 8.15835 26.3896 7.63078V2.56603C26.3896 1.51087 25.5584 0.666748 24.5195 0.666748H14.6494C11.3247 0.666748 8.62338 3.41015 8.62338 6.78665V27.0456H6.96104H6.23377H1.87013C0.831169 27.0456 0 27.8898 0 28.9449C0 30.0001 0.831169 30.8442 1.87013 30.8442H4.36364V39.2854C4.36364 45.5109 8.93507 50.6811 14.8571 51.5253L12.5714 56.6955C12.1558 57.6452 12.5714 58.7003 13.5065 59.1224C13.7143 59.2279 14.026 59.3334 14.2338 59.3334C14.961 59.3334 15.5844 58.9114 15.8961 58.2783L18.8052 51.7363H47.3766C47.5844 51.7363 47.7922 51.7363 48.1039 51.7363L51.013 58.2783C51.3247 59.0169 51.9481 59.3334 52.6753 59.3334C52.8831 59.3334 53.1948 59.3334 53.4026 59.1224C54.3377 58.7003 54.7532 57.6452 54.3377 56.6955L51.7403 50.8922C56.3117 49.0984 59.6364 44.5612 59.6364 39.2854V30.8442H62.1299C63.1688 30.8442 64 30.0001 64 28.9449C64 27.9953 63.1688 27.1512 62.1299 27.1512ZM26.0779 14.9114H22.3377V12.0624C22.3377 11.5349 22.7532 11.1128 23.2727 11.1128H25.1429C25.6623 11.1128 26.0779 11.5349 26.0779 12.0624V14.9114ZM56 39.2854C56 44.0337 52.1558 48.0432 47.3766 48.0432H16.6234C11.9481 48.0432 8 44.1392 8 39.2854V30.8442H56V39.2854Z" fill="#52503B"></path>
  </symbol>
  <symbol fill="none" xmlns="http://www.w3.org/2000/svg" viewBox="0 0 64 64" id="door_icon">
    <path d="M48.7044 0C51.8911 0 54.5639 2.60163 54.6666 5.93171V57.9642C54.6666 61.2943 51.9939 64 48.7044 64H15.2955C12.006 64 9.33331 61.2943 9.33331 57.9642V5.93171C9.33331 2.60163 12.006 0 15.1927 0H48.7044ZM48.6016 3.53821H15.1927C13.8564 3.53821 12.8284 4.68293 12.8284 5.93171V57.9642C12.8284 59.3171 13.9592 60.3577 15.1927 60.3577H48.6016C49.938 60.3577 50.966 59.213 50.966 57.9642V5.93171C50.966 4.57886 49.8352 3.53821 48.6016 3.53821ZM43.1534 27.7854C45.0038 27.7854 46.6485 29.3463 46.6485 31.3236C46.6485 33.3008 45.1066 34.8618 43.1534 34.8618C41.2003 34.8618 39.6583 33.3008 39.6583 31.3236C39.6583 29.3463 41.2003 27.7854 43.1534 27.7854Z" fill="#52503B"></path>
  </symbol>
  <symbol fill="none" xmlns="http://www.w3.org/2000/svg" viewBox="0 0 46 64" id="bed_icon">
    <path d="M45.3604 45.8182V45.7143C45.3604 45.7143 45.3604 45.7143 45.3604 45.6104L39.2342 19.9481V5.61039C39.2342 2.49351 36.7838 0 33.7207 0H12.0751C9.01202 0 6.56157 2.49351 6.56157 5.61039V19.9481L0.435446 45.6104C0.435446 45.7143 0.333344 45.9221 0.333344 46.026V62.1299C0.333344 63.1688 1.15016 64 2.17118 64C3.1922 64 4.00902 63.1688 4.00902 62.1299V59.2208C4.41743 58.0779 10.5436 55.2727 23 55.2727C35.4565 55.2727 41.5826 58.1818 41.991 59.2208V62.1299C41.991 63.1688 42.8078 64 43.8288 64C44.8499 64 45.6667 63.1688 45.6667 62.1299V46.1299C45.4625 46.026 45.3604 45.9221 45.3604 45.8182ZM9.72674 22.026H35.967L41.2763 44.2597H4.41743L9.72674 22.026ZM10.1351 5.61039C10.1351 4.57143 10.952 3.63636 12.0751 3.63636H33.7207C34.7417 3.63636 35.6607 4.46753 35.6607 5.61039V18.3896H10.1351V5.61039ZM22.8979 51.6364C17.1802 51.6364 8.70572 52.3636 3.90692 54.7532V47.8961H41.7868V54.7532C37.0901 52.3636 28.6156 51.6364 22.8979 51.6364Z" fill="#52503B"></path>
  </symbol>
  <symbol fill="none" xmlns="http://www.w3.org/2000/svg" viewBox="0 0 128 45" id="house_logo">
    <path fill-rule="evenodd" clip-rule="evenodd" d="M0 0L128 0.00375313V44.9812L44.7206 45H0V0ZM41.774 2.96497H2.94656V42.035H41.774V2.96497ZM125.065 2.95746H44.7206V42.0275H125.065V2.95746ZM84.4021 23.8249V31.0121C84.4021 32.0967 84.652 32.8849 85.1444 33.3766C85.6441 33.8682 86.2558 34.1159 86.9906 34.1159C87.7217 34.1159 88.3371 33.8682 88.8331 33.3766C89.3292 32.8849 89.5754 32.0967 89.5754 31.0121V23.8249H92.0221V31.0646C92.0221 32.7798 91.5335 34.1009 90.5526 35.0317C89.5717 35.9662 88.3856 36.4354 86.9906 36.4354C85.5807 36.4354 84.3909 35.9662 83.4174 35.0317C82.444 34.1009 81.9554 32.7798 81.9554 31.0646V23.8249H84.4021ZM99.6616 23.6972C100.516 23.6972 101.359 23.8849 102.198 24.2602C103.037 24.6355 103.787 25.1384 104.451 25.769L102.854 27.2477C102.403 26.8799 101.877 26.5834 101.269 26.3545C100.657 26.1293 100.124 26.0167 99.6616 26.0167H99.5236C99.0014 26.0167 98.5165 26.1255 98.0615 26.347C97.6064 26.5684 97.3789 26.9212 97.3789 27.4091C97.3789 27.7882 97.5579 28.0696 97.916 28.246C98.2778 28.4262 98.7888 28.5575 99.449 28.6401L100.445 28.749C101.829 28.9141 102.907 29.2932 103.679 29.8824C104.454 30.4679 104.842 31.3686 104.842 32.5809C104.842 33.7481 104.387 34.6789 103.485 35.3732C102.578 36.0676 101.422 36.4241 100.02 36.4354H99.9115C98.744 36.4354 97.7071 36.1989 96.8008 35.7298C95.8944 35.2606 95.1783 34.6564 94.6487 33.917L96.2413 32.442C96.5621 32.8924 97.0395 33.2827 97.6773 33.6168C98.3151 33.9508 99.0611 34.1159 99.9115 34.1159H100.02C100.739 34.1047 101.314 33.9621 101.747 33.6881C102.179 33.4141 102.396 33.0463 102.396 32.5809C102.396 32.0817 102.198 31.7214 101.81 31.5038C101.418 31.2823 100.851 31.1284 100.105 31.0309L99.1319 30.922C96.3308 30.588 94.9322 29.4508 94.9322 27.4992C94.9322 26.3545 95.3648 25.4425 96.2339 24.7631C97.1029 24.0763 98.1957 23.7235 99.5236 23.6972H99.6616ZM72.7405 23.6991C74.4897 23.6991 75.9817 24.3221 77.2125 25.5607C78.4508 26.8067 79.07 28.308 79.07 30.0682C79.07 31.8246 78.4508 33.3297 77.2125 34.5719C75.9817 35.8105 74.4897 36.4335 72.7405 36.4335C70.9912 36.4335 69.503 35.8105 68.2721 34.5719C67.0413 33.3297 66.4296 31.8246 66.4296 30.0682C66.4296 28.308 67.0413 26.8067 68.2721 25.5607C69.503 24.3221 70.9912 23.6991 72.7405 23.6991ZM56.2714 23.8249V28.8728H61.0754V23.8249H63.5222V36.3115H61.0754V31.1922H56.2714V36.3115H53.8247V23.8249H56.2714ZM115.886 23.8234V26.1428H110.071V28.8713H115.442V31.1907H110.071V33.9906H115.886V36.31H107.625V23.8234H115.886ZM36.2057 8.86451V11.8182H11.753V33.166H33.2704V23.9709H22.3644V21.0171H36.2057V36.1197H8.81767V8.86451H36.2057ZM72.7405 26.0186C71.6402 26.0186 70.7226 26.3976 69.9841 27.1595C69.2419 27.9214 68.8764 28.8897 68.8764 30.0682C68.8764 31.2542 69.2419 32.23 69.9841 32.9844C70.7226 33.7387 71.6402 34.1178 72.7405 34.1178C73.852 34.1178 74.7732 33.7387 75.5154 32.9844C76.2502 32.23 76.6232 31.2542 76.6232 30.0682C76.6232 28.8897 76.2502 27.9214 75.5043 27.1595C74.762 26.3976 73.8408 26.0186 72.7405 26.0186ZM59.3034 8.56952C61.1459 8.56952 62.705 9.26009 63.9843 10.6375L62.388 12.1162C61.5711 11.2943 60.5454 10.8852 59.3034 10.8852C58.2031 10.8852 57.2856 11.2643 56.5471 12.0186C55.8048 12.773 55.4393 13.7488 55.4393 14.9348C55.4393 16.1133 55.8048 17.0854 56.5471 17.8435C57.2856 18.6054 58.2031 18.9882 59.3034 18.9882C60.1426 18.9882 60.8849 18.7555 61.5376 18.2901V16.1321H59.2661V14.278H63.9843V19.2322C62.705 20.6133 61.1459 21.3039 59.3034 21.3039C57.5541 21.3039 56.0659 20.6809 54.8351 19.4386C53.6042 18.2 52.9926 16.695 52.9926 14.9348C52.9926 13.1784 53.6042 11.6734 54.8351 10.4311C56.0659 9.18878 57.5541 8.56952 59.3034 8.56952ZM99.6642 8.54962C100.515 8.54962 101.361 8.73728 102.197 9.11259C103.04 9.48791 103.789 9.98707 104.45 10.6214L102.853 12.1001C102.406 11.7323 101.876 11.432 101.268 11.2068C100.66 10.9817 100.123 10.8691 99.6642 10.8691H99.5224C99.0003 10.8691 98.5154 10.9779 98.0604 11.1993C97.6053 11.417 97.3778 11.7736 97.3778 12.2615C97.3778 12.6405 97.5568 12.922 97.9186 13.0984C98.2804 13.2786 98.7877 13.4099 99.4516 13.4925L100.444 13.5976C101.827 13.7627 102.905 14.1418 103.677 14.731C104.453 15.3165 104.841 16.221 104.841 17.4333C104.841 18.5967 104.39 19.5313 103.484 20.2219C102.581 20.9199 101.425 21.2727 100.019 21.2877H99.9103C98.7429 21.2877 97.706 21.0513 96.7997 20.5822C95.8971 20.1093 95.1809 19.5088 94.6476 18.7694L96.2439 17.2907C96.561 17.7448 97.0421 18.1351 97.6799 18.4654C98.314 18.7994 99.0637 18.9683 99.9103 18.9683H100.019C100.742 18.957 101.313 18.8107 101.745 18.5405C102.178 18.2665 102.394 17.8949 102.394 17.4333C102.394 16.9341 102.197 16.5738 101.809 16.3524C101.417 16.1347 100.854 15.9771 100.108 15.8795L99.1308 15.7744C96.3297 15.4404 94.931 14.2994 94.931 12.3478C94.931 11.2068 95.3637 10.2948 96.2327 9.61176C97.1018 8.92869 98.1984 8.5759 99.5224 8.54962H99.6642ZM70.162 8.67573V15.863C70.162 16.9476 70.4119 17.7358 70.9043 18.2274C71.4041 18.7191 72.0158 18.9668 72.7505 18.9668C73.4816 18.9668 74.097 18.7191 74.5931 18.2274C75.0891 17.7358 75.3353 16.9476 75.3353 15.863V8.67573H77.7821V15.9155C77.7821 17.6307 77.2935 18.9518 76.3125 19.8826C75.3316 20.8171 74.1455 21.2862 72.7505 21.2862C71.3407 21.2862 70.1508 20.8171 69.1774 19.8826C68.2039 18.9518 67.7153 17.6307 67.7153 15.9155V8.67573H70.162ZM91.1203 8.67573V10.9952H85.3055V13.7237H90.6764V16.0431H85.3055V18.843H91.1203V21.1624H82.8587V8.67573H91.1203ZM116.383 8.67423V10.9937H112.978V21.1609H110.531V10.9937H107.129V8.67423H116.383Z" fill="white"></path>
  </symbol>
  <symbol fill="none" xmlns="http://www.w3.org/2000/svg" viewBox="0 0 40 40" id="sc3_icon">
    <g clip-path="url(#clip0_1_385)" filter="url(#filter0_d_1_385)">
      <path d="M28.0378 0C32.422 0 36 3.53312 36 7.92429V24.0252C36 28.4164 32.4724 32 28.0882 32H11.9622C7.57795 32 4 28.4669 4 24.0757V7.92429C4 3.53312 7.52756 0 11.9118 0H28.0378ZM28.0378 1.76656H11.9118C8.53543 1.76656 5.76378 4.54259 5.76378 7.92429V24.0757C5.76378 27.5079 8.53543 30.2839 11.9118 30.2839H28.0882C31.4646 30.2839 34.2362 27.5079 34.2362 24.0757V7.97476C34.2362 4.54259 31.4646 1.76656 28.0378 1.76656ZM19.9748 8.58044C24.0567 8.58044 27.3827 11.9117 27.3827 16C27.3827 20.0883 24.0567 23.4196 19.9748 23.4196C15.8929 23.4196 12.5669 20.0883 12.5669 16C12.5669 11.9117 15.8929 8.58044 19.9748 8.58044ZM19.9748 10.347C16.8504 10.347 14.3307 12.8707 14.3307 16C14.3307 19.1293 16.8504 21.653 19.9748 21.653C23.0992 21.653 25.6189 19.1293 25.6189 16C25.6189 12.8707 23.0992 10.347 19.9748 10.347ZM28.0882 4.94637C29.1465 4.94637 30.0031 5.80442 30.0031 6.86435C30.0031 7.92429 29.1465 8.78234 28.0882 8.78234C27.0299 8.78234 26.1732 7.92429 26.1732 6.86435C26.1732 5.80442 27.0299 4.94637 28.0882 4.94637Z" fill="white"></path>
    </g>
    <defs>
      <filter id="filter0_d_1_385" x="0" y="0" width="40" height="40" filterUnits="userSpaceOnUse" color-interpolation-filters="sRGB">
        <feFlood flood-opacity="0" result="BackgroundImageFix"></feFlood>
        <feColorMatrix in="SourceAlpha" type="matrix" values="0 0 0 0 0 0 0 0 0 0 0 0 0 0 0 0 0 0 127 0" result="hardAlpha"></feColorMatrix>
        <feOffset dy="4"></feOffset>
        <feGaussianBlur stdDeviation="2"></feGaussianBlur>
        <feComposite in2="hardAlpha" operator="out"></feComposite>
        <feColorMatrix type="matrix" values="0 0 0 0 0 0 0 0 0 0 0 0 0 0 0 0 0 0 0.25 0"></feColorMatrix>
        <feBlend mode="normal" in2="BackgroundImageFix" result="effect1_dropShadow_1_385"></feBlend>
        <feBlend mode="normal" in="SourceGraphic" in2="effect1_dropShadow_1_385" result="shape"></feBlend>
      </filter>
      <clipPath id="clip0_1_385">
        <rect width="32" height="32" fill="white" transform="translate(4)"></rect>
      </clipPath>
    </defs>
  </symbol>
  <symbol fill="none" xmlns="http://www.w3.org/2000/svg" viewBox="0 0 32 32" id="sc2_icon">
    <path d="M18.1286 32H14.1939C13.185 32 12.3778 31.1447 12.3778 30.0881V18.1132H9.14936C8.14046 18.1132 7.33334 17.2579 7.33334 16.2013V12.7296C7.33334 11.673 8.14046 10.8176 9.14936 10.8176H12.277V7.6478C12.277 3.06918 15.001 0 19.0366 0H22.0633C23.0722 0 23.8793 0.855346 23.8793 1.91195V5.98742C23.8793 7.04403 23.0722 7.89937 22.0633 7.89937H19.995C19.9446 7.89937 19.9446 7.89937 19.8942 7.89937C19.8942 7.94969 19.8942 8 19.8942 8.05031V10.7673H22.7695C23.3749 10.8176 23.8793 11.0692 24.2324 11.4717C24.5855 11.9245 24.7369 12.5283 24.636 13.0818L24.0307 16.5031C23.9298 17.4088 23.1731 18.0629 22.2146 18.0629H19.8942V30.0881C19.8942 31.0943 19.087 32 18.1286 32ZM13.2354 16.3522C13.7399 16.3522 14.1434 16.7547 14.1434 17.2579V30.0881C14.1434 30.1887 14.1939 30.239 14.1939 30.239H18.1286C18.1286 30.239 18.179 30.1887 18.179 30.0881V17.1572C18.179 16.6541 18.5826 16.2516 19.087 16.2516H22.2651C22.2651 16.2516 22.3155 16.2516 22.3155 16.2013V16.1509L22.9209 12.7799C22.9209 12.6792 22.9209 12.6289 22.8704 12.5786C22.8704 12.5786 22.82 12.5283 22.7695 12.5283H19.0366C18.5321 12.5283 18.1286 12.1258 18.1286 11.6226V8.05031C18.1286 7.14465 18.2799 6.13836 19.995 6.13836H22.0633C22.0633 6.13836 22.1137 6.08805 22.1137 5.98742V1.96226C22.1137 1.86164 22.0633 1.81132 22.0633 1.81132H19.087C16.0603 1.81132 14.093 4.12579 14.093 7.69811V11.7736C14.093 12.2767 13.6894 12.6792 13.185 12.6792H9.14936C9.14936 12.6792 9.09892 12.7296 9.09892 12.8302V16.3019C9.09892 16.4025 9.14936 16.4528 9.14936 16.4528L13.2354 16.3522Z" fill="white"></path>
  </symbol>
  <symbol fill="none" xmlns="http://www.w3.org/2000/svg" viewBox="0 0 32 32" id="sc1_icon">
    <path d="M16.0398 24.3608C14.2624 22.0899 13.2468 20.1286 12.8914 18.3738C11.3171 12.0256 20.8132 12.0256 19.239 18.3738C18.8327 20.1286 17.7663 22.1931 16.0398 24.3608ZM25.6882 29.5736C22.7429 30.8639 19.7976 28.7994 17.3093 26.0124C24.6218 16.7223 20.6101 11.6643 16.0398 11.6643C12.1804 11.6643 10.0476 14.9158 10.9109 18.8383C11.4187 20.9544 12.6882 23.277 14.7703 25.9608C12.4851 28.4898 10.5554 29.7285 8.77809 29.8833C5.2742 30.451 2.53203 26.993 3.85234 23.4318C4.91874 20.6448 11.7234 6.916 12.0281 6.19343C13.0945 4.02573 13.8054 2.11609 16.1921 2.11609C18.4773 2.11609 19.2898 3.9225 20.4069 6.39988C22.9968 11.4062 26.7038 19.0448 28.4811 23.4318C29.2428 25.7543 28.278 28.4898 25.6882 29.5736ZM29.0397 19.8706C19.9499 0.309671 19.4421 0 16.0398 0C12.8406 0 11.4695 2.27092 10.0984 5.16119C2.58281 20.3867 1.92266 22.4512 1.77031 22.7092C0.0437582 27.664 3.69999 31.9994 8.06716 31.9994C9.59059 31.9994 12.3835 31.5865 15.989 27.5608C20.153 32.1542 23.1491 31.9994 23.9108 31.9994C28.3288 31.9994 31.985 27.6124 30.2077 22.7092C30.2585 22.3996 29.0397 19.9222 29.0397 19.8706Z" fill="white"></path>
  </symbol>
  <symbol fill="none" xmlns="http://www.w3.org/2000/svg" viewBox="0 0 30 36" id="cutlery_icon">
    <path d="M23.6133 0C27.0703 0 29.9414 2.80976 30 6.38049V18.9659C30 20.0195 29.1797 20.839 28.125 20.839H26.8945V33.3073C26.8945 34.7707 25.6641 36 24.1992 36H22.5C21.0352 36 19.8047 34.7707 19.8047 33.3073V1.87317C19.8047 0.819512 20.625 0 21.6797 0H23.6133ZM6.32812 0.0585366C6.91406 0.0585366 7.38281 0.526829 7.38281 1.1122V10.0683H10.6641V1.17073C10.6641 0.585366 11.1328 0.117073 11.7188 0.117073C12.3047 0.117073 12.7148 0.585366 12.7734 1.1122V16.0976C12.7734 16.9756 12.1289 17.6195 11.25 17.6195H9.90234V33.2488C9.90234 34.7122 8.67188 35.9415 7.20703 35.9415H5.56641C4.10156 35.9415 2.87109 34.7122 2.87109 33.2488V17.561H1.52344C0.644531 17.561 0 16.9171 0 16.039V1.1122C0 0.585366 0.410156 0.0585366 0.996094 0.0585366C1.58203 0.0585366 2.05078 0.526829 2.05078 1.1122V10.0098H5.27344V1.1122C5.27344 0.526829 5.74219 0.0585366 6.32812 0.0585366ZM24.8438 20.839H21.8555V33.3073C21.8555 33.6585 22.1484 33.9512 22.5 33.9512H24.1992C24.5508 33.9512 24.8438 33.6 24.8438 33.2488V20.839ZM7.85156 17.6195H4.92188V33.3073C4.92188 33.6585 5.21484 33.9512 5.56641 33.9512H7.20703C7.55859 33.9512 7.85156 33.6585 7.85156 33.3073V17.6195ZM23.5547 2.04878H21.7969V18.7902H27.8906V6.38049C27.8906 3.98049 25.957 2.04878 23.5547 2.04878ZM10.7227 12.0585H2.05078V15.5707H10.7227V12.0585Z" fill="#52503B"></path>
  </symbol>
  <symbol fill="none" xmlns="http://www.w3.org/2000/svg" viewBox="0 0 36 16" id="bread_icon">
    <path d="M18.0289 0.5C7.96083 0.5 0 4.73387 0 10.0565C0 10.5403 0.0585355 11.0847 0.234142 11.629C0.585355 12.7177 1.40485 13.5645 2.51703 13.9274C5.50234 14.8952 11.4144 15.5 17.9704 15.5C24.5264 15.5 30.4385 14.8952 33.4238 13.9274C34.536 13.5645 35.3555 12.7177 35.7067 11.6895L35.7652 11.5685C35.8823 11.0242 35.9997 10.5403 35.9997 10.0565C36.0579 4.67339 28.0971 0.5 18.0289 0.5ZM33.8921 10.9637V11.0242C33.775 11.4476 33.4238 11.8105 32.9555 11.9315C30.1458 12.8387 24.2923 13.3831 18.0289 13.3831C11.7656 13.3831 5.91209 12.7782 3.16092 11.9315C2.69264 11.75 2.34142 11.4476 2.22435 11.0242C2.10728 10.7218 2.10728 10.3589 2.10728 10.0565C2.10728 7.93952 4.15602 5.94355 7.37548 4.55242C7.96083 7.15322 9.77544 9.02823 11.9413 9.02823C12.5266 9.02823 12.9949 8.54436 12.9949 7.93952C12.9949 7.33468 12.5266 6.85081 11.9413 6.85081C10.712 6.85081 9.59983 5.58065 9.30715 3.76613C11.0632 3.22177 13.112 2.79839 15.2192 2.61694C15.5705 5.58065 17.3265 8.96774 19.9021 8.96774C20.4874 8.96774 20.9557 8.48387 20.9557 7.87903C20.9557 7.27419 20.4874 6.79032 19.9021 6.79032C18.7899 6.79032 17.5607 4.67339 17.268 2.43548C17.5021 2.43548 17.7948 2.43548 18.0289 2.43548C19.785 2.43548 21.5411 2.55645 23.1215 2.85887C23.2386 6.18548 25.3459 8.90726 27.8629 8.90726C28.4483 8.90726 28.9166 8.42339 28.9166 7.81855C28.9166 7.21371 28.4483 6.72984 27.8629 6.72984C26.5166 6.72984 25.4044 5.15726 25.1703 3.22177C30.3214 4.49194 33.9506 7.03226 33.9506 9.875C34.0092 10.3589 33.9506 10.6613 33.8921 10.9637Z" fill="#52503B"></path>
  </symbol>
  <symbol fill="none" xmlns="http://www.w3.org/2000/svg" viewBox="0 0 38 44" id="game_icon">
    <g filter="url(#filter0_d_1_319)">
      <path d="M32.2524 24.0195L21.6505 18.4675C21.767 18.1169 21.6505 17.6494 21.301 17.4156C20.8932 17.0649 20.2524 17.1234 19.8447 17.5325C19.7282 17.7078 19.2621 17.8247 18.7379 17.7078C18.2718 17.5909 17.9806 17.2403 17.9223 16.7143C17.8641 15.9545 18.2136 15.4286 19.0874 15.0779C19.6699 14.8442 20.0777 14.2597 20.0194 13.6169V9.81818C22.233 9.35065 23.8641 7.36364 23.8641 4.96753C23.8641 2.22078 21.6505 0 18.9126 0C16.1748 0 13.9612 2.22078 13.9612 4.96753C13.9612 7.36364 15.6505 9.35065 17.9223 9.81818L17.9806 13.2662C16.5243 14.026 15.7087 15.3117 15.8835 16.8896C15.9417 17.474 16.1165 17.9416 16.4078 18.4091L5.74757 24.0195C4.87379 24.4286 4.29126 25.2468 4.05825 26.1818C4.05825 26.1818 4.05825 26.1818 4.05825 26.2403C4 26.474 4 26.7078 4 26.9416V32.7273C4 34.539 5.45631 36 7.26214 36H30.7379C32.5437 36 34 34.539 34 32.7273V26.9416C34 25.6558 33.301 24.5455 32.2524 24.0195ZM16.0583 4.96753C16.0583 3.33117 17.3398 2.04545 18.9709 2.04545C20.6019 2.04545 21.8835 3.33117 21.8835 4.96753C21.8835 6.6039 20.6019 7.88961 18.9709 7.88961C17.3398 7.88961 16.0583 6.6039 16.0583 4.96753ZM18.3301 19.7532L18.3883 19.6948C18.6796 19.7532 18.9126 19.8117 19.2039 19.8117C19.3786 19.8117 19.5534 19.8117 19.7282 19.7532L30.4466 25.3636H7.5534L18.3301 19.7532ZM30.7379 33.9545H7.20388C6.50485 33.9545 5.98058 33.3701 5.98058 32.7273V27.4675H31.9612V32.7273C31.9612 33.3701 31.3786 33.9545 30.7379 33.9545Z" fill="#52503B"></path>
    </g>
    <defs>
      <filter id="filter0_d_1_319" x="-3" y="0" width="44" height="44" filterUnits="userSpaceOnUse" color-interpolation-filters="sRGB">
        <feFlood flood-opacity="0" result="BackgroundImageFix"></feFlood>
        <feColorMatrix in="SourceAlpha" type="matrix" values="0 0 0 0 0 0 0 0 0 0 0 0 0 0 0 0 0 0 127 0" result="hardAlpha"></feColorMatrix>
        <feOffset dy="4"></feOffset>
        <feGaussianBlur stdDeviation="2"></feGaussianBlur>
        <feComposite in2="hardAlpha" operator="out"></feComposite>
        <feColorMatrix type="matrix" values="0 0 0 0 0 0 0 0 0 0 0 0 0 0 0 0 0 0 0.25 0"></feColorMatrix>
        <feBlend mode="normal" in2="BackgroundImageFix" result="effect1_dropShadow_1_319"></feBlend>
        <feBlend mode="normal" in="SourceGraphic" in2="effect1_dropShadow_1_319" result="shape"></feBlend>
      </filter>
    </defs>
  </symbol>
</svg>